# xmcd
# 
# Track frame offsets:
#     150
#     20087
#     31250
#     42477
#     52197
#     69782
#     88457
#     99547
#     111452
#     123075
#     138875
#     149090
#     167235
# 
# Disc length: 2485
# 
# Revision: 18
# Processed by: cddbd v1.5.2PL0 Copyright (c) Steve Scherf et al.
# Submitted via: BonkEnc v1.0.15
# 
DISCID=c209b30d
DTITLE=Biohazard - Biohazard
DYEAR=1990
DGENRE=Hardcore
TTITLE0=Retribution
TTITLE1=Victory
TTITLE2=Blue Blood
TTITLE3=Howard Beach
TTITLE4=Wrong Side Of The Tracks
TTITLE5=Justified Violence
TTITLE6=Skinny Song
TTITLE7=Hold My Own
TTITLE8=Pain
TTITLE9=Panic Attack
TTITLE10=Survival Of The Fittest
TTITLE11=There and Back
TTITLE12=Scarred For Life
EXTD=YEAR: 1990
EXTT0=
EXTT1=
EXTT2=
EXTT3=
EXTT4=
EXTT5=
EXTT6=
EXTT7=
EXTT8=
EXTT9=
EXTT10=
EXTT11=
EXTT12=
PLAYORDER=
